# Blender 3.4.1
# www.blender.org
mtllib ../materials/SteinGesicht.mtl
o Cube.002
v -2.049853 0.456873 1.264072
v -2.694769 6.814642 1.588770
v -2.120825 0.149250 -1.998216
v -2.694769 6.814642 -1.998216
v 2.049853 0.456873 1.264072
v 2.694769 6.814642 1.588770
v 2.120826 0.149250 -1.998216
v 2.694769 6.814642 -1.998216
v -2.330862 6.268361 0.737402
v -2.120825 5.498329 -1.998216
v 2.120826 5.498329 -1.998216
v 2.330862 6.268361 0.737402
v -2.694769 8.108888 1.378950
v -2.694769 8.108888 -1.378950
v 2.694769 8.108888 -1.378950
v 2.694769 8.108888 1.378950
v -1.347384 0.149250 -1.998216
v -1.347384 6.814642 -1.998216
v -1.347384 0.149250 1.998216
v -1.347384 6.814642 1.998216
v -0.504371 6.268361 1.295298
v -1.347384 5.498329 -1.998216
v -1.347384 8.108888 -1.998216
v -1.347384 8.108888 1.998216
v 1.367414 6.814642 -1.998216
v 1.367414 0.149250 1.998216
v 1.367414 5.498329 -1.998216
v 1.367414 8.108888 -1.998216
v 1.367414 0.149250 -1.998216
v 1.367414 6.814642 1.998216
v 0.524403 6.268361 1.295298
v 1.367414 8.108888 1.998216
v -2.120825 2.823789 -1.998216
v 2.120826 2.823789 -1.998216
v 2.694769 3.208805 1.367809
v -2.694769 3.208805 1.367809
v -1.347384 2.823789 -1.998216
v -1.362560 3.208805 1.367809
v 1.382589 3.208805 1.367809
v 1.367414 2.823789 -1.998216
v -0.618949 3.711006 2.826659
v 0.638980 3.711006 2.826659
v -2.120825 1.939986 -1.998216
v 2.120826 1.939986 -1.998216
v 2.694769 2.197774 1.576127
v -1.347384 1.939986 -1.998216
v -1.100881 2.367789 2.076795
v 1.120911 2.367789 2.076795
v 1.367414 1.939986 -1.998216
v -2.694769 2.197774 1.576127
v -2.407797 0.149250 0.000000
v -2.694769 6.814642 -0.204723
v 2.407797 0.149250 0.000000
v 2.694769 6.814642 -0.204723
v 2.725208 5.883345 -0.630407
v -2.725208 5.883345 -0.630407
v -2.694769 8.108888 0.000000
v 2.694769 8.108888 0.000000
v -1.347384 8.108888 0.000000
v -1.347384 -0.182574 1.138331
v 1.367414 8.108888 0.000000
v 1.367414 -0.182574 1.138331
v -2.407797 3.016297 -0.315203
v 2.407797 3.016297 -0.315203
v 2.407797 2.068880 -0.211044
v -2.407797 2.068880 -0.211044
v -2.238201 -0.863907 -2.053381
v 2.237649 -0.863907 -2.053381
v -1.422056 -0.863907 -2.053381
v 1.442638 -0.863907 -2.053381
v -2.541018 -0.863907 0.055165
v 2.540466 -0.863907 0.055165
v -1.422056 -0.863907 0.055165
v 1.442638 -0.863907 0.055165
v -2.924625 -1.468524 -2.205251
v 2.917458 -1.468524 -2.205251
v -2.315308 -1.468525 -2.713291
v 2.342505 -1.468525 -2.713291
v -3.319875 -1.468524 0.207035
v 3.312707 -1.468524 0.207035
v -2.315308 -1.468525 0.715075
v 2.342505 -1.468525 0.715075
v -2.924625 -5.105713 -2.205251
v 2.917458 -5.105713 -2.205251
v -2.315308 -5.105713 -2.713291
v 2.342505 -5.105713 -2.713291
v -3.319875 -5.105713 0.207035
v 3.312707 -5.105713 0.207035
v -2.315308 -5.105713 0.715075
v 2.342505 -5.105713 0.715075
v -2.694769 6.814642 -1.101470
v 2.264311 0.149250 -0.999108
v -2.423017 5.690837 -1.314312
v -2.694769 8.108888 -0.689475
v -2.264311 2.920043 -1.156710
v -2.264311 2.004433 -1.104630
v -2.264311 0.149250 -0.999108
v 2.694769 6.814642 -1.101470
v 2.423017 5.690837 -1.314312
v 2.694769 8.108888 -0.689475
v -1.347384 8.108888 -0.999108
v 1.367414 8.108888 -0.999108
v 2.264311 2.920043 -1.156710
v 2.264311 2.004433 -1.104630
v 2.389057 -0.863907 -0.999108
v -2.389610 -0.863907 -0.999108
v 3.881323 -1.468525 -0.999108
v -3.888490 -1.468525 -0.999108
v 3.881323 -5.105713 -0.999108
v -3.888490 -5.105713 -0.999108
v -2.315308 -5.105713 -0.999108
v 2.342505 -5.105713 -0.999108
vn -0.9391 -0.3131 -0.1414
vn -0.0000 -0.0000 -1.0000
vn 0.9253 -0.3449 0.1574
vn -0.1489 -0.8597 0.4886
vn 0.6156 -0.7200 0.3205
vn -1.0000 -0.0000 -0.0000
vn -0.1721 0.1463 0.9742
vn 0.9994 0.0131 0.0327
vn -0.9611 -0.0359 -0.2740
vn -0.0000 1.0000 -0.0000
vn 0.3603 0.0754 0.9298
vn -0.2181 0.2271 -0.9491
vn 1.0000 -0.0000 -0.0000
vn -0.3556 0.0755 0.9316
vn -0.0000 0.0237 0.9997
vn -0.6054 -0.7282 0.3213
vn -0.0000 -0.7896 0.6136
vn 0.1505 -0.8600 0.4876
vn 0.1742 0.1466 0.9737
vn 0.2212 0.2269 -0.9485
vn -0.0000 -0.0000 1.0000
vn -0.0000 -0.9329 0.3600
vn 0.1792 0.4162 0.8914
vn -0.0000 0.6445 0.7646
vn -0.9867 -0.0047 -0.1627
vn 0.9867 -0.0257 -0.1608
vn -0.1768 0.4167 0.8917
vn -0.0000 -0.9455 0.3255
vn -0.0000 0.5137 0.8579
vn 0.8937 0.2593 0.3662
vn -0.8937 0.2593 0.3662
vn -0.4756 -0.1336 0.8695
vn 0.9835 -0.1746 0.0479
vn -0.9887 -0.0043 -0.1498
vn -0.0000 -0.0354 0.9994
vn 0.4820 -0.1339 0.8659
vn -0.9835 -0.1746 0.0479
vn 0.9887 -0.0125 -0.1495
vn 0.9867 -0.0136 -0.1619
vn -0.9867 -0.0257 -0.1608
vn -0.0000 0.0544 -0.9985
vn -0.9994 0.0131 0.0327
vn 0.9598 -0.1029 -0.2610
vn 0.9818 -0.0592 -0.1805
vn -0.9253 -0.3449 0.1574
vn -0.2291 0.7309 -0.6429
vn -0.0000 0.7373 -0.6755
vn -0.4595 0.8588 -0.2267
vn -0.4701 -0.4149 0.7790
vn -0.9825 0.1215 -0.1411
vn -0.0000 -0.8465 0.5324
vn 0.9826 0.1210 -0.1411
vn 0.4772 -0.4123 0.7761
vn -0.7812 -0.0000 -0.6243
vn -0.4513 -0.0000 0.8924
vn 0.9045 -0.0000 0.4264
vn 0.1702 0.7006 0.6930
vn -0.0000 0.7373 0.6755
vn 0.2358 0.7349 -0.6359
vn 0.4648 0.8812 0.0858
vn -0.1666 0.6980 0.6965
vn -0.0000 -1.0000 -0.0000
vn -0.6404 -0.0000 -0.7681
vn 0.4639 -0.0000 0.8859
vn 0.6622 -0.0000 -0.7494
vn 0.4614 0.8575 -0.2277
vn 0.7812 -0.0000 -0.6243
vn -0.9045 -0.0000 0.4264
vn -0.4627 0.8824 0.0854
vn 0.9391 -0.3131 -0.1414
vn 0.9611 -0.0359 -0.2740
vn 0.9867 -0.0047 -0.1627
vn 0.9887 -0.0043 -0.1498
vn -0.9887 -0.0125 -0.1495
vn -0.9867 -0.0136 -0.1619
vn -0.9598 -0.1029 -0.2610
vn -0.9818 -0.0592 -0.1805
vt 0.125000 0.750000
vt 0.375000 1.000000
vt 0.375000 0.000000
vt 0.625000 1.000000
vt 0.625000 0.000000
vt 0.375000 0.250000
vt 0.625000 0.250000
vt 0.375000 0.750000
vt 0.625000 0.750000
vt 0.375000 0.500000
vt 0.625000 0.500000
vt 0.560119 1.000000
vt 0.560119 0.000000
vt 0.560119 0.250000
vt 0.560119 0.500000
vt 0.560119 0.750000
vt 0.625000 0.000000
vt 0.875000 0.750000
vt 0.625000 1.000000
vt 0.625000 0.250000
vt 0.875000 0.500000
vt 0.625000 0.500000
vt 0.625000 0.750000
vt 0.375000 0.312500
vt 0.625000 0.312500
vt 0.187500 0.750000
vt 0.375000 0.937500
vt 0.625000 0.937500
vt 0.560119 0.937500
vt 0.000000 0.000000
vt 0.560119 0.312500
vt 0.625000 0.312500
vt 0.812500 0.500000
vt 0.812500 0.750000
vt 0.625000 0.937500
vt 0.625000 0.453125
vt 0.328125 0.750000
vt 0.375000 0.796875
vt 0.560119 0.453125
vt 0.625000 0.453125
vt 0.671875 0.500000
vt 0.375000 0.453125
vt 0.625000 0.796875
vt 0.560119 0.796875
vt 0.000000 0.000000
vt 0.671875 0.750000
vt 0.625000 0.796875
vt 0.467560 0.250000
vt 0.467560 0.500000
vt 0.467559 0.750000
vt 0.467560 1.000000
vt 0.467560 0.000000
vt 0.467560 0.312500
vt 0.467560 0.937500
vt 0.000000 0.000000
vt 0.467560 0.796875
vt 0.000000 0.000000
vt 0.467560 0.453125
vt 0.467560 0.937500
vt 0.000000 0.000000
vt 0.467560 0.796875
vt 0.000000 0.000000
vt 0.436973 0.250000
vt 0.436973 0.500000
vt 0.436973 0.750000
vt 0.436973 0.312500
vt 0.436973 0.937500
vt 0.436973 0.796875
vt 0.436973 0.453125
vt 0.436973 1.000000
vt 0.436973 0.000000
vt 0.125000 0.625000
vt 0.375000 0.125000
vt 0.625000 0.125000
vt 0.375000 0.625000
vt 0.625000 0.625000
vt 0.560119 0.625000
vt 0.560119 0.125000
vt 0.875000 0.625000
vt 0.625000 0.125000
vt 0.625000 0.625000
vt 0.812500 0.625000
vt 0.187500 0.625000
vt 0.671875 0.625000
vt 0.328125 0.625000
vt 0.467560 0.125000
vt 0.467559 0.625000
vt 0.436973 0.625000
vt 0.436973 0.125000
vt 0.375000 0.250000
vt 0.375000 0.500000
vt 0.375000 0.312500
vt 0.375000 0.453125
vt 0.125000 0.625000
vt 0.375000 0.125000
vt 0.375000 0.625000
vt 0.187500 0.625000
vt 0.328125 0.625000
vt 0.375000 0.250000
vt 0.375000 0.500000
vt 0.375000 0.312500
vt 0.375000 0.453125
vt 0.125000 0.625000
vt 0.375000 0.125000
vt 0.375000 0.625000
vt 0.187500 0.625000
vt 0.328125 0.625000
vt 0.375000 0.250000
vt 0.125000 0.500000
vt 0.375000 0.500000
vt 0.375000 0.312500
vt 0.187500 0.500000
vt 0.375000 0.453125
vt 0.328125 0.500000
vt 0.125000 0.625000
vt 0.375000 0.125000
vt 0.375000 0.625000
vt 0.187500 0.625000
vt 0.328125 0.625000
vt 0.625000 0.187500
vt 0.375000 0.562500
vt 0.560119 0.187500
vt 0.625000 0.187500
vt 0.875000 0.562500
vt 0.467559 0.187500
vt 0.436973 0.187500
vt 0.375000 0.187500
vt 0.625000 0.562500
vt 0.560119 0.562500
vt 0.625000 0.562500
vt 0.812500 0.562500
vt 0.671875 0.562500
vt 0.467559 0.562500
vt 0.436973 0.562500
vt 0.375000 0.562500
vt 0.375000 0.187500
vt 0.375000 0.562500
vt 0.375000 0.187500
vt 0.375000 0.562500
vt 0.125000 0.562500
vt 0.375000 0.187500
vt 0.187500 0.562500
vt 0.328125 0.562500
s 0
usemtl Material
f 93/122/1 91/120/1 4/7/1 10/14/1
f 27/39/2 25/36/2 8/11/2 11/15/2
f 55/77/3 54/76/3 6/9/3 12/16/3
f 21/29/4 20/28/4 2/4/4 9/12/4
f 62/85/5 53/75/5 5/8/5 26/37/5
f 52/74/6 2/5/6 13/17/6 57/80/6
f 38/54/7 21/29/7 9/12/7 36/51/7
f 64/87/8 55/77/8 12/16/8 35/50/8
f 40/58/2 27/39/2 11/15/2 34/49/2
f 95/125/9 93/122/9 10/14/9 33/48/9
f 59/82/10 57/79/10 13/18/10 24/34/10
f 30/43/11 6/9/11 16/23/11 32/47/11
f 18/25/12 4/7/12 14/20/12 23/32/12
f 98/128/13 8/11/13 15/22/13 100/130/13
f 25/36/2 18/25/2 23/32/2 28/40/2
f 2/4/14 20/28/14 24/35/14 13/19/14
f 61/84/10 59/82/10 24/34/10 32/46/10
f 33/48/2 10/14/2 22/31/2 37/53/2
f 39/56/15 31/44/15 21/29/15 38/54/15
f 51/72/16 60/83/16 19/26/16 1/1/16
f 31/44/17 30/43/17 20/28/17 21/29/17
f 10/14/2 4/7/2 18/25/2 22/31/2
f 12/16/18 6/9/18 30/43/18 31/44/18
f 35/50/19 12/16/19 31/44/19 39/56/19
f 58/81/10 61/84/10 32/46/10 16/23/10
f 8/11/20 25/36/20 28/40/20 15/22/20
f 20/28/21 30/43/21 32/47/21 24/35/21
f 37/53/2 22/31/2 27/39/2 40/58/2
f 60/83/22 62/85/22 26/37/22 19/26/22
f 22/31/2 18/25/2 25/36/2 27/39/2
f 46/66/2 37/53/2 40/58/2 49/69/2
f 45/65/23 35/50/23 39/56/23 48/68/23
f 48/68/24 39/56/24 38/54/24 47/67/24
f 43/63/2 33/48/2 37/53/2 46/66/2
f 96/126/25 95/125/25 33/48/25 43/63/25
f 49/69/2 40/58/2 34/49/2 44/64/2
f 65/88/26 64/87/26 35/50/26 45/65/26
f 47/67/27 38/54/27 36/51/27 50/70/27
f 38/54/28 39/56/28 42/61/28 41/59/28
f 41/59/29 42/61/29 31/44/29 21/29/29
f 31/45/30 42/62/30 39/57/30
f 41/60/31 21/30/31 38/55/31
f 19/27/32 47/67/32 50/70/32 1/2/32
f 53/75/33 65/88/33 45/65/33 5/8/33
f 29/42/2 49/69/2 44/64/2 7/10/2
f 97/127/34 96/126/34 43/63/34 3/6/34
f 3/6/2 43/63/2 46/66/2 17/24/2
f 26/38/35 48/68/35 47/67/35 19/27/35
f 5/8/36 45/65/36 48/68/36 26/38/36
f 17/24/2 46/66/2 49/69/2 29/42/2
f 1/3/37 50/71/37 66/89/37 51/73/37
f 92/121/38 104/134/38 65/88/38 53/75/38
f 104/134/39 103/133/39 64/87/39 65/88/39
f 50/71/40 36/52/40 63/86/40 66/89/40
f 29/42/41 7/10/41 68/91/41 70/93/41
f 100/130/10 102/132/10 61/84/10 58/81/10
f 3/6/41 17/24/41 69/92/41 67/90/41
f 102/132/10 101/131/10 59/82/10 61/84/10
f 6/9/13 54/76/13 58/81/13 16/23/13
f 101/131/10 94/124/10 57/79/10 59/82/10
f 36/52/42 9/13/42 56/78/42 63/86/42
f 103/133/43 99/129/43 55/77/43 64/87/43
f 91/120/6 52/74/6 57/80/6 94/123/6
f 17/24/41 29/42/41 70/93/41 69/92/41
f 99/129/44 98/128/44 54/76/44 55/77/44
f 9/13/45 2/5/45 52/74/45 56/78/45
f 67/90/46 69/92/46 77/101/46 75/99/46
f 69/92/47 70/93/47 78/102/47 77/101/47
f 106/136/48 67/90/48 75/99/48 108/138/48
f 60/83/49 51/72/49 71/94/49 73/97/49
f 97/127/50 3/6/50 67/90/50 106/136/50
f 62/85/51 60/83/51 73/97/51 74/98/51
f 92/121/52 53/75/52 72/96/52 105/135/52
f 53/75/53 62/85/53 74/98/53 72/96/53
f 108/138/54 75/99/54 83/108/54 110/141/54
f 81/106/55 79/103/55 87/115/55 89/118/55
f 107/137/56 80/105/56 88/117/56 109/139/56
f 72/96/57 74/98/57 82/107/57 80/105/57
f 74/98/58 73/97/58 81/106/58 82/107/58
f 70/93/59 68/91/59 76/100/59 78/102/59
f 105/135/60 72/96/60 80/105/60 107/137/60
f 73/97/61 71/94/61 79/103/61 81/106/61
f 111/142/62 112/143/62 90/119/62 89/118/62
f 110/140/62 111/142/62 89/118/62 87/115/62
f 112/143/62 109/139/62 88/117/62 90/119/62
f 77/101/2 78/102/2 86/113/2 85/111/2
f 75/99/63 77/101/63 85/111/63 83/108/63
f 80/105/64 82/107/64 90/119/64 88/117/64
f 82/107/21 81/106/21 89/118/21 90/119/21
f 78/102/65 76/100/65 84/110/65 86/113/65
f 86/114/62 84/110/62 109/139/62 112/143/62
f 83/109/62 85/112/62 111/142/62 110/140/62
f 85/112/62 86/114/62 112/143/62 111/142/62
f 68/91/66 105/135/66 107/137/66 76/100/66
f 76/100/67 107/137/67 109/139/67 84/110/67
f 79/104/68 108/138/68 110/141/68 87/116/68
f 7/10/52 92/121/52 105/135/52 68/91/52
f 51/73/50 97/127/50 106/136/50 71/95/50
f 71/95/69 106/136/69 108/138/69 79/104/69
f 11/15/70 8/11/70 98/128/70 99/129/70
f 4/7/6 91/120/6 94/123/6 14/20/6
f 34/49/71 11/15/71 99/129/71 103/133/71
f 23/33/10 14/21/10 94/124/10 101/131/10
f 28/41/10 23/33/10 101/131/10 102/132/10
f 15/22/10 28/41/10 102/132/10 100/130/10
f 44/64/72 34/49/72 103/133/72 104/134/72
f 7/10/73 44/64/73 104/134/73 92/121/73
f 51/73/74 66/89/74 96/126/74 97/127/74
f 66/89/75 63/86/75 95/125/75 96/126/75
f 54/76/13 98/128/13 100/130/13 58/81/13
f 63/86/76 56/78/76 93/122/76 95/125/76
f 56/78/77 52/74/77 91/120/77 93/122/77
