# Blender v2.93.5 OBJ File: ''
# www.blender.org
mtllib ../materials/Toast.mtl
o Cube.001
v 0.206953 1.060678 -0.964013
v 0.206953 -0.885317 -0.966684
v 0.206953 1.060678 0.964012
v 0.206953 -0.964012 0.964013
v 0.206953 0.883750 -0.005140
v 0.206953 -0.852729 -0.005059
v 0.206953 -0.852729 -0.487207
v 0.206953 0.981982 -0.492390
v 0.206953 0.981982 0.487250
v 0.206953 -0.852729 0.482120
v 0.244084 -0.817063 -0.971474
v 0.244084 0.857528 -1.032323
v 0.244084 0.857528 1.032322
v 0.244084 -0.817063 0.971475
v 0.206953 1.060678 0.479477
v 0.206953 0.981983 0.944297
v 0.206953 -0.931424 -0.484536
v 0.206953 -0.964013 -0.964012
v 0.206953 1.060678 -0.484536
v 0.206953 0.964013 -0.005059
v 0.206953 -0.931424 0.479477
v 0.206953 -0.931424 -0.005059
v 0.206953 0.981982 -0.944297
v 0.206953 -0.885317 0.966656
v 0.206953 0.943869 -1.182507
v 0.206953 -0.964013 -1.113181
v 0.206953 0.943870 1.182506
v 0.206953 -0.964012 1.113182
v -0.206953 1.060678 -0.964013
v -0.206953 -0.885317 -0.966684
v -0.206953 1.060678 0.964012
v -0.206953 -0.964012 0.964013
v 0.000000 1.060678 -0.964013
v 0.000000 -0.964013 -0.964012
v 0.000000 1.060678 0.964012
v 0.000000 -0.964012 0.964013
v 0.000000 -0.931424 -0.005059
v -0.206953 0.883750 -0.005140
v 0.000000 0.964013 -0.005059
v -0.206953 -0.852729 -0.005059
v 0.000000 1.060678 -0.484536
v -0.206953 -0.852729 -0.487207
v 0.000000 -0.931424 -0.484536
v -0.206953 0.981982 -0.492390
v 0.000000 -0.931424 0.479477
v -0.206953 0.981982 0.487250
v 0.000000 1.060678 0.479477
v -0.206953 -0.852729 0.482120
v -0.206953 -0.885317 -1.037293
v 0.000000 -0.964013 -1.113181
v -0.206953 0.897631 -1.102079
v 0.000000 -0.964012 1.113182
v 0.000000 0.943870 1.182506
v -0.206953 0.897631 1.102079
v -0.206953 -0.885317 1.037294
v 0.000000 0.943869 -1.182507
v -0.206953 1.060678 0.479477
v -0.206953 0.981983 0.944297
v -0.206953 -0.931424 -0.484536
v -0.206953 -0.964013 -0.964012
v -0.206953 1.060678 -0.484536
v -0.206953 0.964013 -0.005059
v -0.206953 -0.931424 0.479477
v -0.206953 -0.931424 -0.005059
v -0.206953 0.981982 -0.944297
v -0.206953 -0.885317 0.966656
v -0.206953 0.943869 -1.182507
v -0.206953 -0.964013 -1.113181
v -0.206953 0.943870 1.182506
v -0.206953 -0.964012 1.113182
v 0.244084 0.913728 0.493992
v 0.244084 0.913728 0.927198
v 0.244084 -0.784475 -0.489524
v 0.244084 -0.817063 -0.969000
v 0.244084 0.913728 -0.499201
v 0.244084 0.814137 -0.005211
v 0.244084 -0.784475 0.484413
v 0.244084 -0.784475 -0.005059
v 0.244084 0.913728 -0.927198
v 0.244084 -0.817063 0.968949
v 0.206953 0.897631 -1.102079
v 0.206953 -0.885317 -1.037293
v 0.206953 0.897631 1.102079
v 0.206953 -0.885317 1.037294
vt 0.384895 0.687515
vt 0.384732 0.750000
vt 0.614033 0.750000
vt 0.614952 0.688180
vt 0.384867 0.561826
vt 0.385380 0.624344
vt 0.614415 0.624334
vt 0.615132 0.561154
vt 0.375000 0.062828
vt 0.625000 0.062828
vt 0.625000 0.125656
vt 0.375000 0.125656
vt 0.384733 0.500000
vt 0.614033 0.500000
vt 0.613799 0.500000
vt 0.385003 0.500000
vt 0.375000 0.000000
vt 0.375000 0.000000
vt 0.625000 0.000000
vt 0.625000 0.000000
vt 0.375000 0.187828
vt 0.625000 0.187828
vt 0.625000 0.250000
vt 0.375000 0.250000
vt 0.625000 0.250000
vt 0.375000 0.250000
vt 0.385003 0.750000
vt 0.613798 0.750000
vt 0.375000 0.687172
vt 0.125000 0.687172
vt 0.125000 0.750000
vt 0.375000 0.750000
vt 0.875000 0.750000
vt 0.625000 0.750000
vt 0.625000 0.750000
vt 0.875000 0.750000
vt 0.625000 0.687172
vt 0.875000 0.687172
vt 0.125000 0.624344
vt 0.125000 0.562172
vt 0.375000 0.562172
vt 0.375000 0.624344
vt 0.125000 0.750000
vt 0.375000 0.750000
vt 0.375000 0.750000
vt 0.625000 0.562172
vt 0.625000 0.500000
vt 0.875000 0.500000
vt 0.875000 0.562172
vt 0.625000 0.687172
vt 0.625000 0.750000
vt 0.375000 0.500000
vt 0.125000 0.500000
vt 0.375000 0.562172
vt 0.625000 0.750000
vt 0.375000 0.500000
vt 0.375000 0.500000
vt 0.125000 0.500000
vt 0.375000 0.687172
vt 0.625000 0.624344
vt 0.875000 0.624344
vt 0.875000 0.500000
vt 0.625000 0.500000
vt 0.375000 0.624344
vt 0.625000 0.624344
vt 0.625000 0.562172
vt 0.613799 0.500000
vt 0.385003 0.500000
vt 0.385003 0.750000
vt 0.613798 0.750000
vt 0.384733 0.500000
vt 0.625000 0.500000
vt 0.625000 0.500000
vt 0.384732 0.750000
vt 0.384867 0.561826
vt 0.385380 0.624344
vt 0.384895 0.687515
vt 0.614952 0.688180
vt 0.614415 0.624334
vt 0.375000 1.000000
vt 0.625000 1.000000
vt 0.375000 0.500000
vt 0.375000 0.750000
vt 0.614033 0.750000
vt 0.615132 0.561154
vt 0.614033 0.500000
vt 0.393424 0.561525
vt 0.606558 0.560236
vt 0.605235 0.624324
vt 0.394382 0.624344
vt 0.604271 0.500000
vt 0.604518 0.500000
vt 0.393144 0.500000
vt 0.393168 0.500000
vt 0.393468 0.687812
vt 0.606246 0.689054
vt 0.393144 0.750000
vt 0.604518 0.750000
vt 0.604271 0.750000
vt 0.393168 0.750000
vn -1.0000 0.0000 0.0000
vn 0.0000 -0.9977 -0.0671
vn 0.0000 0.8819 0.4715
vn 0.0000 1.0000 0.0000
vn 0.0000 -1.0000 0.0000
vn 0.0000 -0.9977 0.0678
vn 0.0000 0.9803 0.1976
vn 0.0000 0.8819 -0.4715
vn 1.0000 -0.0000 0.0000
vn 0.0000 -0.0363 -0.9993
vn 0.0000 -0.0363 0.9993
vn -0.0000 0.9807 -0.1956
vn 0.8784 0.4779 -0.0000
vn 0.8784 -0.4768 0.0324
vn 0.8784 0.4685 0.0944
vn 0.8784 -0.4779 0.0000
vn 0.8784 0.4686 -0.0935
vn 0.8784 -0.4768 -0.0321
vn 0.8784 -0.0174 -0.4776
vn 0.8784 -0.0174 0.4776
vn 0.8784 0.4214 -0.2253
vn 0.8784 0.4214 0.2253
usemtl Material.001
s 1
f 48/1/1 66/2/1 58/3/1 46/4/1
f 42/5/1 40/6/1 38/7/1 44/8/1
f 45/9/1 47/10/1 39/11/1 37/12/1
f 30/13/1 65/14/1 51/15/1 49/16/1
f 36/17/1 52/18/1 53/19/1 35/20/1
f 43/21/1 41/22/1 33/23/1 34/24/1
f 34/24/1 33/23/1 56/25/1 50/26/1
f 65/14/1 30/13/1 42/5/1 44/8/1
f 66/2/1 55/27/1 54/28/1 58/3/1
f 38/7/1 40/6/1 48/1/1 46/4/1
usemtl Brown
f 63/29/2 45/30/2 36/31/2 32/32/2
f 35/33/3 31/34/3 69/35/3 53/36/3
f 57/37/4 31/34/4 35/33/4 47/38/4
f 37/39/5 43/40/5 17/41/5 22/42/5
f 52/43/5 36/31/5 4/44/5 28/45/5
f 19/46/4 1/47/4 33/48/4 41/49/4
f 15/50/4 47/38/4 35/33/4 3/51/4
f 60/52/6 34/53/6 43/40/6 59/54/6
f 27/55/3 3/51/3 35/33/3 53/36/3
f 26/56/5 18/57/5 34/53/5 50/58/5
f 36/31/2 45/30/2 21/59/2 4/44/2
f 20/60/7 19/46/7 41/49/7 39/61/7
f 56/62/8 33/48/8 1/47/8 25/63/8
f 59/54/5 43/40/5 37/39/5 64/64/5
f 58/3/1 31/34/1 57/37/1 46/4/1
f 30/13/1 60/52/1 59/54/1 42/5/1
f 44/8/1 38/7/1 62/65/1 61/66/1
f 40/6/1 64/64/1 63/29/1 48/1/1
f 35/20/1 47/10/1 45/9/1 36/17/1
f 46/4/1 57/37/1 62/65/1 38/7/1
f 25/63/9 81/67/9 82/68/9
f 84/69/9 83/70/9 27/55/9
f 82/68/9 2/71/9 18/57/9
f 51/15/1 65/14/1 29/72/1 67/73/1
f 4/44/9 24/74/9 84/69/9
f 26/56/10 50/26/10 56/25/10 25/63/10
f 2/71/9 7/75/9 17/41/9 18/57/9
f 6/76/9 10/77/9 21/59/9 22/42/9
f 9/78/9 5/79/9 20/60/9 15/50/9
f 43/40/6 34/53/6 18/57/6 17/41/6
f 39/11/1 41/22/1 43/21/1 37/12/1
f 52/80/11 28/45/11 27/55/11 53/81/11
f 41/49/7 61/66/7 62/65/7 39/61/7
f 33/48/4 29/72/4 61/66/4 41/49/4
f 66/2/1 48/1/1 63/29/1 32/32/1
f 39/61/12 62/65/12 57/37/12 47/38/12
f 45/30/5 37/39/5 22/42/5 21/59/5
f 15/50/12 20/60/12 39/61/12 47/38/12
f 64/64/5 37/39/5 45/30/5 63/29/5
f 56/25/10 50/26/10 68/82/10 67/73/10
f 34/53/5 60/52/5 68/82/5 50/58/5
f 29/72/8 33/48/8 56/62/8 67/73/8
f 32/32/5 36/31/5 52/43/5 70/83/5
f 54/28/1 69/35/1 31/34/1 58/3/1
f 65/14/1 44/8/1 61/66/1 29/72/1
f 16/84/9 9/78/9 15/50/9 3/51/9
f 40/6/1 42/5/1 59/54/1 64/64/1
f 17/41/9 7/75/9 6/76/9 22/42/9
f 19/46/9 8/85/9 23/86/9 1/47/9
f 20/60/9 5/79/9 8/85/9 19/46/9
f 21/59/9 10/77/9 24/74/9 4/44/9
f 49/16/1 51/15/1 67/73/1
f 55/27/1 70/83/1 69/35/1
f 49/16/1 68/82/1 60/52/1
f 83/70/9 16/84/9 3/51/9 27/55/9
f 55/27/1 66/2/1 32/32/1
f 1/47/9 23/86/9 81/67/9 25/63/9
f 25/63/9 82/68/9 26/56/9
f 84/69/9 27/55/9 28/45/9
f 82/68/9 18/57/9 26/56/9
f 4/44/9 84/69/9 28/45/9
f 49/16/1 67/73/1 68/82/1
f 55/27/1 69/35/1 54/28/1
f 49/16/1 60/52/1 30/13/1
f 55/27/1 32/32/1 70/83/1
f 69/35/11 70/83/11 52/80/11 53/81/11
usemtl Material.002
f 73/87/9 75/88/9 76/89/9 78/90/9
f 12/91/9 79/92/9 74/93/9 11/94/9
f 73/87/9 74/93/9 79/92/9 75/88/9
f 77/95/9 78/90/9 76/89/9 71/96/9
f 80/97/9 72/98/9 13/99/9 14/100/9
f 77/95/9 71/96/9 72/98/9 80/97/9
f 72/98/13 71/96/13 9/78/13 16/84/13
f 74/93/14 73/87/14 7/75/14 2/71/14
f 76/89/15 75/88/15 8/85/15 5/79/15
f 78/90/16 77/95/16 10/77/16 6/76/16
f 73/87/16 78/90/16 6/76/16 7/75/16
f 75/88/13 79/92/13 23/86/13 8/85/13
f 71/96/17 76/89/17 5/79/17 9/78/17
f 77/95/18 80/97/18 24/74/18 10/77/18
f 12/91/19 11/94/19 82/68/19 81/67/19
f 14/100/20 13/99/20 83/70/20 84/69/20
f 11/94/16 74/93/16 2/71/16 82/68/16
f 79/92/21 12/91/21 81/67/21 23/86/21
f 80/97/16 14/100/16 84/69/16 24/74/16
f 13/99/22 72/98/22 16/84/22 83/70/22
